<svg width="32" height="32" viewBox="0 0 32 32" fill="none" xmlns="http://www.w3.org/2000/svg">
<path d="M3.41343 8.46664V19.8533C3.40453 20.2091 3.46694 20.563 3.59696 20.8943C3.72698 21.2255 3.922 21.5274 4.17051 21.7822C4.41903 22.0369 4.71601 22.2393 5.04397 22.3775C5.37193 22.5156 5.72423 22.5868 6.0801 22.5866H20.0001C20.5306 22.5815 21.0505 22.7347 21.4934 23.0266L26.1601 26.0666C26.3961 26.2194 26.6693 26.3049 26.9503 26.3141C27.2312 26.3232 27.5094 26.2556 27.7548 26.1185C28.0002 25.9814 28.2037 25.7799 28.3432 25.5359C28.4827 25.2918 28.5531 25.0144 28.5468 24.7333V8.46664C28.5468 7.75939 28.2658 7.08112 27.7657 6.58102C27.2656 6.08092 26.5873 5.79997 25.8801 5.79997H6.13343C5.77877 5.79288 5.42627 5.85661 5.09655 5.98745C4.76684 6.11828 4.46654 6.31358 4.21324 6.56191C3.95994 6.81025 3.75873 7.10662 3.6214 7.43368C3.48406 7.76074 3.41336 8.11191 3.41343 8.46664Z" stroke="white" stroke-width="1.5" stroke-linecap="round" stroke-linejoin="round"/>
<path d="M13.6267 16.4V11.44C13.6204 11.1281 13.7237 10.8238 13.9186 10.5802C14.1135 10.3366 14.3877 10.169 14.6934 10.1067L18.7867 9.18665C18.9077 9.16071 19.0329 9.16225 19.1532 9.19115C19.2735 9.22004 19.3857 9.27556 19.4817 9.35361C19.5777 9.43167 19.6549 9.53026 19.7077 9.64213C19.7605 9.75399 19.7875 9.87629 19.7867 9.99999V15.0933" stroke="white" stroke-width="1.5" stroke-linecap="round" stroke-linejoin="round"/>
<path d="M19.2798 17.1867C19.1803 17.343 19.0471 17.475 18.8898 17.573C18.7326 17.6711 18.5555 17.7327 18.3713 17.7532C18.1872 17.7738 18.0008 17.7528 17.8258 17.6919C17.6509 17.631 17.4918 17.5316 17.3603 17.4011C17.2287 17.2706 17.1281 17.1123 17.0658 16.9378C17.0035 16.7633 16.9811 16.5771 17.0003 16.3928C17.0194 16.2085 17.0796 16.0309 17.1764 15.8729C17.2733 15.7149 17.4042 15.5807 17.5598 15.48C18.2264 14.8133 19.7731 14.9867 19.7731 14.9867C19.8786 15.7555 19.7034 16.5365 19.2798 17.1867Z" fill="white" stroke="white" stroke-width="1.5" stroke-linecap="round" stroke-linejoin="round"/>
<path d="M13.1198 18.52C13.0191 18.6755 12.8848 18.8065 12.7269 18.9033C12.5689 19.0002 12.3912 19.0604 12.207 19.0795C12.0227 19.0986 11.8364 19.0762 11.662 19.0139C11.4875 18.9516 11.3292 18.851 11.1987 18.7195C11.0682 18.588 10.9688 18.4289 10.9078 18.254C10.8469 18.079 10.826 17.8926 10.8465 17.7085C10.8671 17.5243 10.9287 17.3471 11.0267 17.1899C11.1248 17.0327 11.2568 16.8995 11.4131 16.8C12.0798 16.1333 13.6131 16.32 13.6131 16.32C13.7186 17.0888 13.5434 17.8699 13.1198 18.52Z" fill="white" stroke="white" stroke-width="1.5" stroke-linecap="round" stroke-linejoin="round"/>
</svg>
