<svg width="32" height="32" viewBox="0 0 32 32" fill="none" xmlns="http://www.w3.org/2000/svg">
<path d="M6.47982 25.3599H25.1465C25.3986 25.3599 25.6483 25.3103 25.8812 25.2138C26.1142 25.1173 26.3258 24.9759 26.5041 24.7976C26.6824 24.6193 26.8239 24.4076 26.9203 24.1747C27.0168 23.9418 27.0665 23.6921 27.0665 23.4399V12.0799C27.063 11.5082 26.8343 10.9608 26.43 10.5565C26.0257 10.1521 25.4783 9.92344 24.9065 9.91995H15.8132L14.3732 6.81328H6.47982C6.22832 6.81152 5.97895 6.85954 5.74608 6.95457C5.51321 7.0496 5.30144 7.18977 5.12298 7.36699C4.94451 7.54422 4.80288 7.755 4.70622 7.9872C4.60957 8.2194 4.55982 8.46843 4.55982 8.71994V23.3866C4.55269 23.6432 4.59709 23.8986 4.69038 24.1378C4.78367 24.3769 4.92396 24.5949 5.10297 24.7789C5.28197 24.9628 5.49605 25.1091 5.73254 25.2089C5.96903 25.3087 6.22313 25.36 6.47982 25.3599V25.3599Z" stroke="white" stroke-width="2" stroke-linecap="round" stroke-linejoin="round"/>
<path d="M13.853 19.8801V15.4934C13.8547 15.2215 13.9475 14.9581 14.1168 14.7453C14.286 14.5325 14.5218 14.3828 14.7864 14.3201L18.3997 13.4934C18.5062 13.4696 18.6167 13.4698 18.7231 13.4941C18.8295 13.5184 18.9291 13.5662 19.0147 13.6339C19.1003 13.7016 19.1697 13.7876 19.2179 13.8855C19.266 13.9835 19.2917 14.0909 19.293 14.2001V18.7067" stroke="white" stroke-width="1.5" stroke-linecap="round" stroke-linejoin="round"/>
<path d="M18.8396 20.6267C18.7432 20.7558 18.6214 20.8636 18.4815 20.9436C18.3417 21.0235 18.1869 21.0738 18.0268 21.0913C17.8667 21.1088 17.7047 21.0931 17.551 21.0453C17.3972 20.9975 17.2549 20.9186 17.1329 20.8134C17.0263 20.6931 16.9455 20.5523 16.8955 20.3995C16.8456 20.2467 16.8275 20.0853 16.8425 19.9253C16.8575 19.7653 16.9052 19.6101 16.9827 19.4693C17.0602 19.3284 17.1658 19.205 17.2929 19.1067C17.8694 18.7351 18.5605 18.5837 19.2396 18.68C19.3438 19.3559 19.2019 20.0467 18.8396 20.6267Z" fill="white" stroke="white" stroke-width="1.5" stroke-linecap="round" stroke-linejoin="round"/>
<path d="M13.3998 21.6934C13.3048 21.8241 13.1834 21.9335 13.0436 22.0146C12.9037 22.0957 12.7485 22.1467 12.5878 22.1642C12.4271 22.1818 12.2645 22.1656 12.1104 22.1167C11.9564 22.0677 11.8142 21.9871 11.6932 21.88C11.5883 21.7592 11.5095 21.618 11.4619 21.4652C11.4142 21.3125 11.3986 21.1516 11.4162 20.9925C11.4337 20.8335 11.4839 20.6798 11.5637 20.5411C11.6435 20.4024 11.7511 20.2818 11.8798 20.1867C12.4539 19.8094 13.1472 19.6574 13.8265 19.76C13.8265 19.76 13.9865 21.1067 13.3998 21.6934Z" fill="white" stroke="white" stroke-width="1.5" stroke-linecap="round" stroke-linejoin="round"/>
</svg>
