<svg width="32" height="32" viewBox="0 0 32 32" fill="none" xmlns="http://www.w3.org/2000/svg">
<path d="M15.7866 15.8934C18.7174 15.8934 21.0933 13.5175 21.0933 10.5867C21.0933 7.6559 18.7174 5.28003 15.7866 5.28003C12.8558 5.28003 10.48 7.6559 10.48 10.5867C10.48 13.5175 12.8558 15.8934 15.7866 15.8934Z" stroke="white" stroke-width="2" stroke-linecap="round" stroke-linejoin="round"/>
<path d="M7.56006 26.8933C7.56006 25.813 7.77285 24.7432 8.18627 23.7451C8.5997 22.747 9.20568 21.8401 9.96959 21.0762C10.7335 20.3122 11.6404 19.7063 12.6385 19.2928C13.6366 18.8794 14.7064 18.6666 15.7867 18.6666C17.9593 18.6807 20.0381 19.5537 21.5694 21.0949C23.1007 22.6362 23.9601 24.7207 23.9601 26.8933" stroke="white" stroke-width="2" stroke-linecap="round" stroke-linejoin="round"/>
</svg>
