<svg width="32" height="32" viewBox="0 0 32 32" fill="none" xmlns="http://www.w3.org/2000/svg">
<path d="M21.48 14L8.41334 6.45335C8.06383 6.2622 7.67078 6.16483 7.27246 6.17072C6.87414 6.17661 6.48413 6.28556 6.14042 6.48695C5.79672 6.68834 5.51102 6.97531 5.31117 7.31991C5.11132 7.66452 5.00412 8.05501 5.00001 8.45335V23.5467C4.99891 23.9528 5.10504 24.3519 5.30766 24.7039C5.51029 25.0558 5.80223 25.348 6.15397 25.5509C6.50572 25.7538 6.90481 25.8603 7.31089 25.8596C7.71698 25.8588 8.11567 25.7509 8.46668 25.5467L21.5333 18C21.8825 17.7932 22.1709 17.498 22.3694 17.1442C22.568 16.7903 22.6697 16.3903 22.6643 15.9846C22.6589 15.5788 22.5466 15.1817 22.3386 14.8333C22.1307 14.4848 21.8345 14.1974 21.48 14V14Z" stroke="white" stroke-width="1.5" stroke-linecap="round" stroke-linejoin="round"/>
<path d="M26.2666 7.50665V25.24" stroke="white" stroke-width="1.5" stroke-linecap="round" stroke-linejoin="round"/>
</svg>
