<svg width="32" height="32" viewBox="0 0 32 32" fill="none" xmlns="http://www.w3.org/2000/svg">
<path d="M24.7486 13.8376L11.7541 6.33724C11.3729 6.11654 10.9398 6.00018 10.4989 6C10.0579 5.99982 9.62472 6.11582 9.24339 6.33622C8.86205 6.55661 8.54614 6.87354 8.32777 7.2548C8.1094 7.63606 7.99634 8.06805 8.00009 8.50688V23.5075C7.9989 23.9452 8.11383 24.3753 8.33325 24.7546C8.55266 25.1338 8.8688 25.4487 9.2497 25.6674C9.6306 25.8861 10.0628 26.0008 10.5025 26C10.9422 25.9992 11.374 25.8829 11.7541 25.6628L24.7486 18.1625C25.1292 17.9427 25.4452 17.6272 25.6648 17.2477C25.8844 16.8682 26 16.438 26 16C26 15.5621 25.8844 15.1318 25.6648 14.7523C25.4452 14.3728 25.1292 14.0574 24.7486 13.8376V13.8376Z" stroke="white" stroke-width="1.5" stroke-linecap="round" stroke-linejoin="round"/>
</svg>
