<svg width="32" height="32" viewBox="0 0 32 32" fill="none" xmlns="http://www.w3.org/2000/svg">
<path d="M20.6 14.9067L14.1466 11.1867C13.9565 11.0769 13.7409 11.019 13.5213 11.0188C13.3018 11.0186 13.086 11.076 12.8956 11.1854C12.7053 11.2947 12.547 11.4522 12.4366 11.642C12.3262 11.8317 12.2676 12.0472 12.2666 12.2667V19.7201C12.2652 19.9407 12.3221 20.1579 12.4316 20.3495C12.541 20.5411 12.6991 20.7005 12.8898 20.8114C13.0806 20.9224 13.2973 20.981 13.518 20.9813C13.7386 20.9817 13.9555 20.9237 14.1466 20.8134L20.6 17.0801C20.7911 16.9702 20.9499 16.8119 21.0603 16.6211C21.1707 16.4303 21.2288 16.2138 21.2288 15.9934C21.2288 15.773 21.1707 15.5564 21.0603 15.3656C20.9499 15.1749 20.7911 15.0166 20.6 14.9067V14.9067Z" stroke="white" stroke-width="1.5" stroke-linecap="round" stroke-linejoin="round"/>
<path d="M15.9597 26.4133C21.7108 26.4133 26.373 21.7511 26.373 16C26.373 10.2489 21.7108 5.58667 15.9597 5.58667C10.2086 5.58667 5.54639 10.2489 5.54639 16C5.54639 21.7511 10.2086 26.4133 15.9597 26.4133Z" stroke="white" stroke-width="1.5" stroke-linecap="round" stroke-linejoin="round"/>
</svg>
