<svg width="32" height="32" viewBox="0 0 32 32" fill="none" xmlns="http://www.w3.org/2000/svg">
<path d="M5 7.50665V25.24" stroke="white" stroke-width="1.5" stroke-linecap="round" stroke-linejoin="round"/>
<path d="M9.82639 14L22.8797 6.45335C23.2317 6.25011 23.631 6.14292 24.0374 6.14252C24.4439 6.14211 24.8433 6.24851 25.1958 6.45104C25.5482 6.65358 25.8412 6.94515 26.0455 7.29656C26.2497 7.64797 26.3581 8.04688 26.3597 8.45335V23.5467C26.3581 23.9531 26.2497 24.3521 26.0455 24.7035C25.8412 25.0549 25.5482 25.3464 25.1958 25.549C24.8433 25.7515 24.4439 25.8579 24.0374 25.8575C23.631 25.8571 23.2317 25.7499 22.8797 25.5467L9.82639 18C9.47462 17.7979 9.18238 17.5065 8.97917 17.1554C8.77595 16.8043 8.66895 16.4057 8.66895 16C8.66895 15.5943 8.77595 15.1958 8.97917 14.8446C9.18238 14.4935 9.47462 14.2021 9.82639 14V14Z" stroke="white" stroke-width="1.5" stroke-linecap="round" stroke-linejoin="round"/>
</svg>
