<svg width="32" height="32" viewBox="0 0 32 32" fill="none" xmlns="http://www.w3.org/2000/svg">
<path d="M4.27979 9.20001H5.13312C7.22509 9.20989 9.2623 9.86954 10.963 11.0877C12.6637 12.3059 13.9439 14.0225 14.6264 16V16C15.3156 17.9875 16.6063 19.7112 18.3193 20.9321C20.0324 22.1529 22.0829 22.8104 24.1864 22.8133H25.9998" stroke="white" stroke-width="1.5" stroke-linecap="round" stroke-linejoin="round"/>
<path d="M4.27979 22.9867H5.13312C7.22718 22.9778 9.2665 22.317 10.9678 21.096C12.6691 19.875 13.9478 18.1544 14.6264 16.1734V16.1734C15.3141 14.1723 16.6109 12.4367 18.335 11.21C20.0591 9.98331 22.1239 9.32708 24.2398 9.33336H26.0531" stroke="white" stroke-width="1.5" stroke-linecap="round" stroke-linejoin="round"/>
<path d="M24.1865 12L27.3732 9.30665L24.0132 6.62665" stroke="white" stroke-width="1.5" stroke-linecap="round" stroke-linejoin="round"/>
<path d="M24.1865 25.5333L27.3732 22.84L24.0132 20.1467" stroke="white" stroke-width="1.5" stroke-linecap="round" stroke-linejoin="round"/>
</svg>
