<svg width="32" height="32" viewBox="0 0 32 32" fill="none" xmlns="http://www.w3.org/2000/svg">
<path d="M7.40669 17.2564L17.8407 23.8974C17.9599 23.9677 18.0935 24.003 18.2287 23.9998C18.3638 23.9966 18.4959 23.955 18.6123 23.8791C18.7288 23.8031 18.8256 23.6953 18.8934 23.5661C18.9613 23.4368 18.998 23.2904 19 23.141V9.85902C18.998 9.70956 18.9613 9.56318 18.8934 9.43392C18.8256 9.30467 18.7288 9.19689 18.6123 9.12094C18.4959 9.04499 18.3638 9.00341 18.2287 9.0002C18.0935 8.99699 17.9599 9.03225 17.8407 9.10261L7.40669 15.7308C7.28347 15.8062 7.18076 15.9167 7.10924 16.0508C7.03772 16.185 7 16.3379 7 16.4936C7 16.6493 7.03772 16.8022 7.10924 16.9363C7.18076 17.0705 7.28347 17.181 7.40669 17.2564V17.2564Z" stroke="white" stroke-width="1.5" stroke-linecap="round" stroke-linejoin="round"/>
<path d="M4 13L4 21" stroke="white" stroke-width="1.5" stroke-linecap="round" stroke-linejoin="round"/>
<path d="M21.9199 13.04C21.9199 13.04 25.2533 17.04 21.9199 20.44" stroke="white" stroke-width="1.5" stroke-linecap="round" stroke-linejoin="round"/>
<path d="M23.813 8.22668C23.813 8.22668 31.4797 17.56 23.813 25.2534" stroke="white" stroke-width="1.5" stroke-linecap="round" stroke-linejoin="round"/>
</svg>
