<svg width="32" height="32" viewBox="0 0 32 32" fill="none" xmlns="http://www.w3.org/2000/svg">
<path d="M11.0001 22V11.061C10.9957 10.3872 11.225 9.73151 11.6512 9.19971C12.0773 8.6679 12.6754 8.29092 13.349 8.12952L22.6508 6.06491C22.9289 5.9904 23.221 5.97988 23.504 6.03418C23.787 6.08848 24.0531 6.20611 24.2811 6.37773C24.5091 6.54935 24.6927 6.77023 24.8175 7.02284C24.9422 7.27545 25.0046 7.55282 24.9997 7.83294V19.0913" stroke="white" stroke-width="1.5" stroke-linecap="round" stroke-linejoin="round"/>
<path d="M23.8941 23.8374C22.4469 25.2842 20.7416 25.3178 19.7095 24.286C18.6773 23.2542 18.7222 21.5495 20.1694 20.1028C21.6167 18.656 24.9487 19.0486 24.9487 19.0486C24.9487 19.0486 25.3526 22.3907 23.8941 23.8374Z" fill="white" stroke="white" stroke-width="1.5" stroke-linecap="round" stroke-linejoin="round"/>
<path d="M9.90491 26.8374C8.4578 28.2842 6.74145 28.3178 5.7094 27.286C4.67735 26.2542 4.72222 24.5495 6.16933 23.1028C7.61645 21.656 10.9482 22.0486 10.9482 22.0486C10.9482 22.0486 11.352 25.3907 9.90491 26.8374Z" fill="white" stroke="white" stroke-width="1.5" stroke-linecap="round" stroke-linejoin="round"/>
<path d="M11 14L25 11" stroke="white" stroke-width="1.5" stroke-linecap="round" stroke-linejoin="round"/>
</svg>
